<svg width="68" height="56" viewBox="0 0 68 56" fill="none" xmlns="http://www.w3.org/2000/svg">
<g clip-path="url(#clip0_1374_368)">
<path d="M38.8756 16.87L37.5989 15.87C37.3994 15.7043 37.1441 15.626 36.8887 15.6522C36.6332 15.6784 36.3981 15.807 36.2345 16.01L18.5654 36.83L18.8383 37.14L23.2142 33C23.0683 32.9398 22.9477 32.8291 22.8731 32.6871C22.7986 32.5451 22.7749 32.3807 22.8062 32.2227C22.8375 32.0646 22.9217 31.9227 23.0443 31.8218C23.1669 31.7208 23.3201 31.6671 23.4773 31.67C23.619 31.67 23.757 31.7166 23.8711 31.803C23.9851 31.8894 24.0691 32.011 24.1108 32.15L29.8803 26.66C29.9686 26.587 30.0787 26.5472 30.1921 26.5472C30.3056 26.5472 30.4156 26.587 30.504 26.66L30.7964 26.88C30.8953 26.9528 31.0171 26.9849 31.138 26.9701C31.2588 26.9553 31.3699 26.8946 31.4493 26.8L38.9926 18.12C39.0727 18.0339 39.1339 17.931 39.1719 17.8184C39.2098 17.7058 39.2238 17.5862 39.2127 17.4676C39.2016 17.349 39.1657 17.2343 39.1076 17.1312C39.0494 17.028 38.9703 16.939 38.8756 16.87Z" fill="#303030"/>
<path d="M47.179 22.73C43.3124 25.553 38.9807 27.6364 34.3926 28.88C29.8388 30.0683 25.1791 30.7786 20.4854 31C20.5799 31.7102 20.7498 32.4077 20.9921 33.08C23.643 35.54 43.6023 31.34 47.5006 26.48C48.329 25.47 47.179 22.73 47.179 22.73ZM23.4773 33C23.3462 33 23.2181 32.9601 23.1091 32.8854C23.0001 32.8107 22.9152 32.7045 22.865 32.5802C22.8149 32.4559 22.8018 32.3192 22.8273 32.1873C22.8529 32.0554 22.916 31.9342 23.0087 31.8391C23.1014 31.744 23.2195 31.6793 23.348 31.653C23.4766 31.6268 23.6098 31.6403 23.7309 31.6917C23.852 31.7432 23.9555 31.8304 24.0283 31.9422C24.1011 32.054 24.14 32.1855 24.14 32.32C24.1413 32.4097 24.1251 32.4987 24.0922 32.5818C24.0594 32.6649 24.0106 32.7404 23.9488 32.8038C23.887 32.8672 23.8135 32.9173 23.7325 32.951C23.6515 32.9847 23.5647 33.0013 23.4773 33Z" fill="#303030"/>
<path d="M4.61872 21.2899L4.77465 20.5999L7.30855 21.1899C7.5176 21.5861 7.64686 22.0214 7.68864 22.4699C7.737 22.945 7.70736 23.425 7.60093 23.8899C7.47477 24.5352 7.18576 25.1352 6.76279 25.6299C6.36037 26.097 5.8415 26.4428 5.26194 26.6299C4.66462 26.8189 4.02931 26.8431 3.41999 26.6999C2.80934 26.5646 2.24647 26.2603 1.79245 25.8199C1.34538 25.3969 1.02435 24.8526 0.866602 24.2499C0.691601 23.5954 0.691601 22.9045 0.866602 22.2499C0.971347 21.76 1.15939 21.2929 1.42211 20.8699C1.67076 20.4853 2.00476 20.1665 2.39669 19.9399L2.74753 20.4899C2.4116 20.7016 2.12324 20.9839 1.90149 21.3183C1.67973 21.6527 1.52963 22.0316 1.46109 22.4299C1.34023 22.9473 1.3503 23.4877 1.49033 23.9999C1.62128 24.4863 1.88104 24.9259 2.24075 25.2699C2.61049 25.6367 3.07307 25.8896 3.57592 25.9999C4.06353 26.1404 4.57942 26.1404 5.06703 25.9999C5.53413 25.8417 5.95367 25.5628 6.28525 25.1899C6.626 24.7873 6.86083 24.3019 6.96745 23.7799C7.1278 23.1468 7.08683 22.4776 6.8505 21.8699L4.61872 21.2899Z" fill="#303030"/>
<path d="M10.1356 15.0001L7.86482 18.1101L8.83939 19.9001L8.39109 20.5201L4.78516 13.7701L5.20422 13.1801L12.5428 14.8001L12.0847 15.4201L10.1356 15.0001ZM9.49236 14.8401L5.59405 13.9401L7.54321 17.5301L9.49236 14.8401Z" fill="#303030"/>
<path d="M9.49219 8.54998L10.0769 8.09998L13.7901 13.2L16.8502 10.85L17.2206 11.36L13.5854 14.15L9.49219 8.54998Z" fill="#303030"/>
<path d="M15.6318 4.37996L16.2848 4.07996L18.8577 9.85996L22.3369 8.23996L22.5903 8.81996L18.4581 10.75L15.6318 4.37996Z" fill="#303030"/>
<path d="M28.4768 6.68003L28.623 7.31003L23.9255 8.44003L22.3662 1.62003L26.9272 0.530029L27.0637 1.15003L23.1654 2.08003L23.7209 4.50003L27.1514 3.67003L27.2976 4.29003L23.8573 5.11003L24.4421 7.64003L28.4768 6.68003Z" fill="#303030"/>
<path d="M35.1717 6.92997L33.5441 4.72997C33.3624 4.74029 33.1802 4.74029 32.9984 4.72997L31.1662 4.78997L31.2344 7.00997H30.5132L30.2891 0.00996866L32.8814 -3.1339e-05C33.6144 -0.0694894 34.3474 0.132721 34.9475 0.569969C35.2005 0.778962 35.4038 1.04418 35.5423 1.3456C35.6807 1.64702 35.7506 1.97678 35.7467 2.30997C35.7751 2.80416 35.6488 3.29473 35.3861 3.70997C35.106 4.10853 34.7103 4.40603 34.2556 4.55997L35.9611 6.89997L35.1717 6.92997ZM34.4895 3.63997C34.6647 3.47531 34.8006 3.27154 34.8868 3.04439C34.9729 2.81725 35.0071 2.57281 34.9865 2.32997C34.9916 2.08584 34.9424 1.84374 34.8428 1.62198C34.7432 1.40022 34.5957 1.20461 34.4115 1.04997C33.9623 0.737448 33.4222 0.592707 32.8814 0.639969L31.0297 0.709969L31.1467 4.20997L32.9594 4.14997C33.5122 4.17096 34.0543 3.99026 34.4895 3.63997Z" fill="#303030"/>
<path d="M40.3275 5.07L39.9766 7.46L39.2652 7.35L39.6258 5L37.6084 0L38.3686 0.12L40.0936 4.38L43.0173 0.85L43.6995 1L40.3275 5.07Z" fill="#303030"/>
<path d="M49.9663 4.65005L50.8142 5.78005L50.4438 6.08005L49.5959 4.92005L49.0599 6.23005L48.6506 6.05005L49.1964 4.74005L47.793 4.93005V4.45005L49.1769 4.29005L48.3192 3.16005L48.6993 2.86005L49.4497 4.00005L49.976 2.68005L50.3951 2.86005L49.8981 4.20005L51.3014 4.00005V4.49005L49.9663 4.65005Z" fill="#303030"/>
<path d="M53.2208 12.71C52.9907 12.346 52.8471 11.9315 52.8018 11.5L53.3768 11.24C53.4199 11.6364 53.5462 12.0185 53.7471 12.36C53.9648 12.743 54.2488 13.0819 54.5852 13.36C54.9326 13.7013 55.3759 13.9217 55.8522 13.99C56.0243 14.0064 56.1977 13.9794 56.3573 13.9115C56.517 13.8435 56.658 13.7366 56.7683 13.6C56.8491 13.5085 56.9107 13.4009 56.9493 13.284C56.9879 13.167 57.0025 13.0431 56.9924 12.92C56.9602 12.6763 56.8807 12.4417 56.7585 12.23C56.5754 11.9231 56.377 11.626 56.164 11.34C55.9046 10.9912 55.6701 10.6236 55.4624 10.24C55.3036 9.95296 55.2165 9.63003 55.209 9.30004C55.2083 8.92946 55.344 8.5723 55.589 8.30004C55.8014 8.03617 56.0817 7.83869 56.3979 7.73004C56.7513 7.62531 57.1264 7.62531 57.4797 7.73004C57.935 7.88282 58.3559 8.12763 58.7174 8.45004C59.0175 8.70611 59.283 9.00205 59.5068 9.33004C59.7139 9.6342 59.8688 9.97239 59.9649 10.33L59.4094 10.63C59.3125 10.2967 59.168 9.97991 58.9806 9.69004C58.7939 9.43118 58.5743 9.19913 58.3276 9.00004C57.9854 8.66028 57.5435 8.44587 57.0704 8.39004C56.8966 8.37512 56.7218 8.40478 56.5619 8.47635C56.402 8.54792 56.2619 8.65915 56.1543 8.80004C56.0714 8.89013 56.0085 8.99753 55.9698 9.11489C55.9311 9.23226 55.9176 9.35681 55.9302 9.48004C55.953 9.73221 56.0331 9.97538 56.164 10.19C56.3005 10.42 56.4954 10.72 56.7585 11.08C57.0194 11.4208 57.254 11.7819 57.4602 12.16C57.6224 12.4462 57.7128 12.7692 57.7234 13.1C57.724 13.4706 57.5883 13.8278 57.3433 14.1C57.1301 14.3675 56.8457 14.5656 56.5246 14.67C56.1719 14.7793 55.7956 14.7793 55.4429 14.67C54.9844 14.5177 54.5603 14.2729 54.1954 13.95C53.802 13.5987 53.4721 13.179 53.2208 12.71Z" fill="#303030"/>
<path d="M63.0258 14.17L61.6516 12.17L62.1584 11.8L65.3258 16.44L64.819 16.81L63.4449 14.81L58.3576 18.46L57.9482 17.85L63.0258 14.17Z" fill="#303030"/>
<path d="M60.8426 22.39C61.0166 21.7856 61.3546 21.2445 61.8172 20.83C62.2697 20.4141 62.8209 20.1279 63.4155 20C64.0215 19.8572 64.6536 19.8814 65.2477 20.07C65.821 20.2645 66.335 20.6092 66.7388 21.07C67.1586 21.5656 67.4443 22.1656 67.5672 22.81C67.7286 23.4426 67.7286 24.1073 67.5672 24.74C67.3884 25.3421 67.0512 25.8819 66.5926 26.3C66.1276 26.727 65.5627 27.0233 64.953 27.16C64.3434 27.2967 63.7096 27.2691 63.1133 27.08C62.5356 26.8949 62.0193 26.5487 61.6222 26.08C61.2043 25.587 60.9188 24.9907 60.7938 24.35C60.645 23.7033 60.6618 23.028 60.8426 22.39ZM62.1193 25.57C62.4447 25.9502 62.8663 26.2306 63.3375 26.38C63.8231 26.5245 64.3364 26.5417 64.8302 26.4298C65.324 26.318 65.7825 26.0808 66.1638 25.74C66.5235 25.4004 66.7891 24.9691 66.9337 24.49C67.0696 23.9841 67.0829 23.4517 66.9725 22.9393C66.8621 22.4269 66.6313 21.95 66.3002 21.55C65.9605 21.1679 65.5259 20.8879 65.043 20.74C64.5512 20.606 64.0339 20.606 63.5422 20.74C63.046 20.8377 62.5866 21.0768 62.2167 21.43C61.8537 21.7708 61.5876 22.2062 61.4468 22.69C61.3145 23.1977 61.3145 23.7322 61.4468 24.24C61.5536 24.7361 61.7854 25.1947 62.1193 25.57Z" fill="#303030"/>
<path d="M60.1012 34L62.6253 33C62.6253 32.82 62.6838 32.64 62.7325 32.45L63.2101 30.64L61.144 30.09L61.3291 29.38L67.9173 31.19L67.2546 33.72C67.1053 34.4582 66.7045 35.1177 66.1241 35.58C65.8574 35.7701 65.5514 35.8942 65.2302 35.9428C64.909 35.9914 64.5812 35.963 64.2724 35.86C63.8021 35.7553 63.3806 35.4892 63.0776 35.1056C62.7746 34.722 62.6082 34.2438 62.6058 33.75L59.916 34.75L60.1012 34ZM63.366 34.28C63.4802 34.4925 63.6351 34.6792 63.8213 34.8287C64.0076 34.9782 64.2214 35.0876 64.4499 35.1502C64.6784 35.2128 64.9169 35.2273 65.151 35.1929C65.3851 35.1585 65.61 35.0759 65.8122 34.95C66.2424 34.5955 66.5359 34.0958 66.6406 33.54L67.1084 31.74L63.8046 30.83L63.3368 32.63C63.157 33.1664 63.1673 33.7507 63.366 34.28Z" fill="#303030"/>
<path d="M56.6025 40.44L56.1055 40.05L59.0292 36.1L64.4673 40.33L61.6411 44.16L61.144 43.77L63.5317 40.54L61.5826 39.03L59.4483 41.92L58.961 41.54L61.144 38.65L59.1267 37.08L56.6025 40.44Z" fill="#303030"/>
<path d="M54.3224 48.41L52.9287 48.49V48.01L54.3224 48L53.5719 46.81L53.952 46.56L54.6927 47.76L55.2969 46.42L55.716 46.65L55.0533 47.91L56.4469 47.83V48.32H55.0338L55.7842 49.51L55.4041 49.76L54.6635 48.56L54.0202 49.86L53.6109 49.62L54.3224 48.41Z" fill="#303030"/>
<path d="M41.6528 47.61L42.832 48.28C43.0297 47.8904 43.3057 47.5481 43.6416 47.2757C43.9776 47.0034 44.366 46.8072 44.7812 46.7C45.1685 46.5761 45.5759 46.5319 45.9799 46.57C46.3305 46.5976 46.6672 46.722 46.9545 46.93C47.2142 47.1309 47.4052 47.4109 47.5003 47.73C47.6177 48.1248 47.597 48.5493 47.4418 48.93C47.1972 49.4474 46.8675 49.9176 46.4672 50.32C46.7885 50.4972 47.0865 50.7156 47.3541 50.97C47.5379 51.1649 47.6747 51.4012 47.7537 51.66C47.8036 51.8618 47.8067 52.0728 47.7627 52.276C47.7187 52.4792 47.6288 52.669 47.5003 52.83C47.2401 53.2147 46.8519 53.4885 46.4087 53.6C46.0196 53.7523 45.5894 53.7523 45.2003 53.6C45.0272 53.5237 44.8738 53.4072 44.752 53.2597C44.6303 53.1122 44.5435 52.9377 44.4986 52.75C44.3964 52.4199 44.4208 52.0623 44.5668 51.75C44.7905 51.2954 45.0833 50.8802 45.4342 50.52L43.0854 49.18C42.9958 49.651 42.9761 50.1331 43.027 50.61H42.4325C42.3924 50.0227 42.4585 49.4328 42.6274 48.87L41.3994 48.17L41.6528 47.61ZM43.3486 48.61L45.9312 50.08C46.2697 49.7484 46.5499 49.3593 46.7596 48.93C46.8667 48.6401 46.8667 48.32 46.7596 48.03C46.7154 47.8568 46.6299 47.6975 46.5108 47.5666C46.3917 47.4357 46.2428 47.3372 46.0774 47.28C45.6728 47.1398 45.2345 47.1398 44.8299 47.28C44.4993 47.3695 44.1918 47.5323 43.9292 47.7569C43.6665 47.9815 43.455 48.2625 43.3096 48.58L43.3486 48.61ZM47.013 52.61C47.0767 52.4995 47.1166 52.3763 47.13 52.2487C47.1435 52.1211 47.1301 51.9919 47.0909 51.87C47.0312 51.6726 46.924 51.4937 46.7791 51.35C46.531 51.1353 46.2596 50.9508 45.9702 50.8C45.6747 51.0998 45.4161 51.4357 45.2003 51.8C45.0824 52.0272 45.0545 52.2923 45.1223 52.54C45.1532 52.6545 45.2074 52.7609 45.2813 52.8522C45.3552 52.9436 45.4472 53.0178 45.5511 53.07C45.7992 53.166 46.0729 53.166 46.321 53.07C46.586 52.9975 46.8173 52.831 46.974 52.6L47.013 52.61Z" fill="#303030"/>
<path d="M29.7725 55.3199L29.9089 48.3199H30.6009L30.4936 53.9199L33.2614 49.2599H33.6025L36.1949 53.9999L36.2924 48.4299H36.9843L36.8576 55.4299H36.2631L33.3979 50.1999L30.367 55.3299L29.7725 55.3199Z" fill="#303030"/>
<path d="M26.3815 48C26.8272 48.4358 27.1461 48.9901 27.3027 49.601C27.4593 50.212 27.4474 50.8556 27.2684 51.46C27.1083 52.0789 26.7884 52.642 26.3426 53.09C25.9092 53.527 25.366 53.8317 24.7735 53.97C24.1485 54.1147 23.4979 54.094 22.8828 53.91C22.2698 53.7564 21.7058 53.4429 21.2455 53C20.8065 52.5697 20.4927 52.0227 20.3392 51.42C20.1893 50.7969 20.2004 50.1446 20.3713 49.5273C20.5422 48.91 20.867 48.3491 21.3137 47.9C21.7394 47.4641 22.2711 47.1533 22.8536 47C23.4753 46.8557 24.1227 46.8763 24.7345 47.06C25.3538 47.221 25.9215 47.545 26.3815 48ZM23.0582 47.65C22.5815 47.7639 22.1458 48.0134 21.801 48.37C21.442 48.7369 21.1862 49.1963 21.0604 49.7C20.9244 50.2004 20.9244 50.7295 21.0604 51.23C21.1753 51.7169 21.4219 52.1606 21.7718 52.51C22.1387 52.8782 22.5918 53.1433 23.0875 53.28C23.5831 53.4095 24.1024 53.4095 24.5981 53.28C25.0752 53.1596 25.5125 52.9111 25.865 52.56C26.2221 52.1916 26.4777 51.7327 26.6057 51.23C26.7419 50.7262 26.7419 50.1938 26.6057 49.69C26.481 49.2049 26.232 48.7629 25.8845 48.41C25.5156 48.0413 25.0584 47.7791 24.5591 47.65C24.068 47.5107 23.5493 47.5107 23.0582 47.65Z" fill="#303030"/>
<path d="M15.6809 43L15.9441 45.75C16.1112 45.8233 16.274 45.9068 16.4314 46L18.0199 46.94L19.092 45L19.7254 45.37L16.3144 51.4L14.0924 50.09C13.4356 49.7515 12.9175 49.1844 12.6305 48.49C12.5246 48.1772 12.4888 47.8439 12.5259 47.5149C12.5631 47.1859 12.6721 46.8698 12.8449 46.59C13.0714 46.1518 13.4306 45.8008 13.8682 45.59C14.3127 45.4011 14.8043 45.3626 15.2716 45.48L14.989 42.54L15.6809 43ZM14.5699 46.16C14.341 46.219 14.1261 46.3247 13.9379 46.4708C13.7498 46.617 13.5923 46.8006 13.4749 47.0107C13.3575 47.2207 13.2827 47.4529 13.2548 47.6934C13.2269 47.9338 13.2466 48.1776 13.3127 48.41C13.5412 48.9276 13.9372 49.3481 14.4335 49.6L16.0025 50.53L17.7081 47.53L16.139 46.6C15.688 46.2533 15.1327 46.0799 14.5699 46.11V46.16Z" fill="#303030"/>
<path d="M9.91112 38.31L10.3497 37.86L13.712 41.41L8.83909 46.29L5.59375 42.85L6.04206 42.4L8.80011 45.31L10.4666 43.58L8.04968 41L8.51748 40.54L10.9832 43.14L12.7959 41.33L9.91112 38.31Z" fill="#303030"/>
<path d="M2.66959 34.38L2.90349 33L3.36154 33.07L3.09841 34.49L4.3946 34L4.55053 34.44L3.23485 34.9L4.31663 35.84L4.00476 36.2L2.96197 35.2L2.71832 36.62L2.25053 36.53L2.52341 35.11L1.21748 35.59L1.07129 35.2L2.37722 34.73L1.29544 33.8L1.61705 33.44L2.66959 34.38Z" fill="#303030"/>
</g>
<defs>
<clipPath id="clip0_1374_368">
<rect width="67.1776" height="55.46" fill="white" transform="translate(0.720703)"/>
</clipPath>
</defs>
</svg>
